<?xml version="1.0" encoding="UTF-8" standalone="no"?>
<!DOCTYPE svg PUBLIC "-//W3C//DTD SVG 1.1//EN"
 "http://www.w3.org/Graphics/SVG/1.1/DTD/svg11.dtd">
<!-- Generated by graphviz version 2.47.0 (20210316.0004)
 -->
<!-- Title: dependencies Pages: 1 -->
<svg width="2316pt" height="284pt"
 viewBox="0.00 0.00 2316.00 284.00" xmlns="http://www.w3.org/2000/svg" xmlns:xlink="http://www.w3.org/1999/xlink">
<g id="graph0" class="graph" transform="scale(1 1) rotate(0) translate(4 280)">
<title>dependencies</title>
<polygon fill="white" stroke="transparent" points="-4,4 -4,-280 2312,-280 2312,4 -4,4"/>
<text text-anchor="start" x="1133.01" y="-42.4" font-family="sans-serif" font-weight="bold" font-size="14.00">Legend</text>
<polygon fill="#ffffb3" stroke="transparent" points="920,-10 920,-30 940,-30 940,-10 920,-10"/>
<text text-anchor="start" x="943.63" y="-15.4" font-family="sans-serif" font-size="14.00"> &#160;Declarations</text>
<polygon fill="#8dd3c7" stroke="transparent" points="1033,-10 1033,-30 1053,-30 1053,-10 1033,-10"/>
<text text-anchor="start" x="1056.73" y="-15.4" font-family="sans-serif" font-size="14.00"> &#160;Module</text>
<polygon fill="#80b1d3" stroke="transparent" points="1119,-10 1119,-30 1139,-30 1139,-10 1119,-10"/>
<text text-anchor="start" x="1142.78" y="-15.4" font-family="sans-serif" font-size="14.00"> &#160;Bootstrap</text>
<polygon fill="#fdb462" stroke="transparent" points="1216,-10 1216,-30 1236,-30 1236,-10 1216,-10"/>
<text text-anchor="start" x="1239.67" y="-15.4" font-family="sans-serif" font-size="14.00"> &#160;Providers</text>
<polygon fill="#fb8072" stroke="transparent" points="1312,-10 1312,-30 1332,-30 1332,-10 1312,-10"/>
<text text-anchor="start" x="1335.73" y="-15.4" font-family="sans-serif" font-size="14.00"> &#160;Exports</text>
<g id="clust1" class="cluster">
<title>cluster_AppModule</title>
<polygon fill="none" stroke="black" stroke-dasharray="1,5" points="8,-70 8,-268 2300,-268 2300,-70 8,-70"/>
</g>
<g id="clust2" class="cluster">
<title>cluster_AppModule_declarations</title>
<polygon fill="none" stroke="black" points="168,-78 168,-130 2292,-130 2292,-78 168,-78"/>
</g>
<g id="clust16" class="cluster">
<title>cluster_AppModule_imports</title>
<polygon fill="none" stroke="black" points="16,-78 16,-130 160,-130 160,-78 16,-78"/>
</g>
<g id="clust18" class="cluster">
<title>cluster_AppModule_bootstrap</title>
<polygon fill="none" stroke="black" points="1135,-208 1135,-260 1259,-260 1259,-208 1135,-208"/>
</g>
<!-- AdminLayoutComponent -->
<g id="node1" class="node">
<title>AdminLayoutComponent</title>
<polygon fill="#ffffb3" stroke="black" points="2283.88,-122 2124.12,-122 2124.12,-86 2283.88,-86 2283.88,-122"/>
<text text-anchor="middle" x="2204" y="-99.8" font-family="Times,serif" font-size="14.00">AdminLayoutComponent</text>
</g>
<!-- AppModule -->
<g id="node14" class="node">
<title>AppModule</title>
<polygon fill="#8dd3c7" stroke="black" points="1238.66,-187 1235.66,-191 1214.66,-191 1211.66,-187 1155.34,-187 1155.34,-151 1238.66,-151 1238.66,-187"/>
<text text-anchor="middle" x="1197" y="-164.8" font-family="Times,serif" font-size="14.00">AppModule</text>
</g>
<!-- AdminLayoutComponent&#45;&gt;AppModule -->
<g id="edge1" class="edge">
<title>AdminLayoutComponent&#45;&gt;AppModule</title>
<path fill="none" stroke="black" d="M2204,-122.09C2204,-145.13 2204,-182 2204,-182 2204,-182 1248.67,-182 1248.67,-182"/>
<polygon fill="black" stroke="black" points="1248.67,-178.5 1238.67,-182 1248.67,-185.5 1248.67,-178.5"/>
</g>
<!-- AppComponent -->
<g id="node2" class="node">
<title>AppComponent</title>
<polygon fill="#ffffb3" stroke="black" points="2105.94,-122 2000.06,-122 2000.06,-86 2105.94,-86 2105.94,-122"/>
<text text-anchor="middle" x="2053" y="-99.8" font-family="Times,serif" font-size="14.00">AppComponent</text>
</g>
<!-- AppComponent&#45;&gt;AppModule -->
<g id="edge2" class="edge">
<title>AppComponent&#45;&gt;AppModule</title>
<path fill="none" stroke="black" d="M2053,-122.04C2053,-143.66 2053,-177 2053,-177 2053,-177 1248.87,-177 1248.87,-177"/>
<polygon fill="black" stroke="black" points="1248.87,-173.5 1238.87,-177 1248.87,-180.5 1248.87,-173.5"/>
</g>
<!-- PassosFormComponent -->
<g id="node3" class="node">
<title>PassosFormComponent</title>
<polygon fill="#ffffb3" stroke="black" points="1982.5,-122 1833.5,-122 1833.5,-86 1982.5,-86 1982.5,-122"/>
<text text-anchor="middle" x="1908" y="-99.8" font-family="Times,serif" font-size="14.00">PassosFormComponent</text>
</g>
<!-- PassosFormComponent&#45;&gt;AppModule -->
<g id="edge3" class="edge">
<title>PassosFormComponent&#45;&gt;AppModule</title>
<path fill="none" stroke="black" d="M1908,-122.22C1908,-142.37 1908,-172 1908,-172 1908,-172 1248.82,-172 1248.82,-172"/>
<polygon fill="black" stroke="black" points="1248.82,-168.5 1238.82,-172 1248.82,-175.5 1248.82,-168.5"/>
</g>
<!-- PassosListComponent -->
<g id="node4" class="node">
<title>PassosListComponent</title>
<polygon fill="#ffffb3" stroke="black" points="1815.44,-122 1674.56,-122 1674.56,-86 1815.44,-86 1815.44,-122"/>
<text text-anchor="middle" x="1745" y="-99.8" font-family="Times,serif" font-size="14.00">PassosListComponent</text>
</g>
<!-- PassosListComponent&#45;&gt;AppModule -->
<g id="edge4" class="edge">
<title>PassosListComponent&#45;&gt;AppModule</title>
<path fill="none" stroke="black" d="M1745,-122.22C1745,-140.83 1745,-167 1745,-167 1745,-167 1249.09,-167 1249.09,-167"/>
<polygon fill="black" stroke="black" points="1249.09,-163.5 1239.09,-167 1249.09,-170.5 1249.09,-163.5"/>
</g>
<!-- PlayPasComponent -->
<g id="node5" class="node">
<title>PlayPasComponent</title>
<polygon fill="#ffffb3" stroke="black" points="1656.66,-122 1531.34,-122 1531.34,-86 1656.66,-86 1656.66,-122"/>
<text text-anchor="middle" x="1594" y="-99.8" font-family="Times,serif" font-size="14.00">PlayPasComponent</text>
</g>
<!-- PlayPasComponent&#45;&gt;AppModule -->
<g id="edge5" class="edge">
<title>PlayPasComponent&#45;&gt;AppModule</title>
<path fill="none" stroke="black" d="M1594,-122.03C1594,-139.06 1594,-162 1594,-162 1594,-162 1248.74,-162 1248.74,-162"/>
<polygon fill="black" stroke="black" points="1248.74,-158.5 1238.74,-162 1248.74,-165.5 1248.74,-158.5"/>
</g>
<!-- PlayProcesComponent -->
<g id="node6" class="node">
<title>PlayProcesComponent</title>
<polygon fill="#ffffb3" stroke="black" points="1512.54,-122 1369.46,-122 1369.46,-86 1512.54,-86 1512.54,-122"/>
<text text-anchor="middle" x="1441" y="-99.8" font-family="Times,serif" font-size="14.00">PlayProcesComponent</text>
</g>
<!-- PlayProcesComponent&#45;&gt;AppModule -->
<g id="edge6" class="edge">
<title>PlayProcesComponent&#45;&gt;AppModule</title>
<path fill="none" stroke="black" d="M1441,-122.24C1441,-137.57 1441,-157 1441,-157 1441,-157 1248.67,-157 1248.67,-157"/>
<polygon fill="black" stroke="black" points="1248.67,-153.5 1238.67,-157 1248.67,-160.5 1248.67,-153.5"/>
</g>
<!-- PrivacitatComponent -->
<g id="node7" class="node">
<title>PrivacitatComponent</title>
<polygon fill="#ffffb3" stroke="black" points="1351.48,-122 1216.52,-122 1216.52,-86 1351.48,-86 1351.48,-122"/>
<text text-anchor="middle" x="1284" y="-99.8" font-family="Times,serif" font-size="14.00">PrivacitatComponent</text>
</g>
<!-- PrivacitatComponent&#45;&gt;AppModule -->
<g id="edge7" class="edge">
<title>PrivacitatComponent&#45;&gt;AppModule</title>
<path fill="none" stroke="black" d="M1227.67,-122.11C1227.67,-122.11 1227.67,-140.99 1227.67,-140.99"/>
<polygon fill="black" stroke="black" points="1224.17,-140.99 1227.67,-150.99 1231.17,-140.99 1224.17,-140.99"/>
</g>
<!-- ProcesCompletatComponent -->
<g id="node8" class="node">
<title>ProcesCompletatComponent</title>
<polygon fill="#ffffb3" stroke="black" points="1198.48,-122 1021.52,-122 1021.52,-86 1198.48,-86 1198.48,-122"/>
<text text-anchor="middle" x="1110" y="-99.8" font-family="Times,serif" font-size="14.00">ProcesCompletatComponent</text>
</g>
<!-- ProcesCompletatComponent&#45;&gt;AppModule -->
<g id="edge8" class="edge">
<title>ProcesCompletatComponent&#45;&gt;AppModule</title>
<path fill="none" stroke="black" d="M1176.83,-122.11C1176.83,-122.11 1176.83,-140.99 1176.83,-140.99"/>
<polygon fill="black" stroke="black" points="1173.33,-140.99 1176.83,-150.99 1180.33,-140.99 1173.33,-140.99"/>
</g>
<!-- ProcesDetailsComponent -->
<g id="node9" class="node">
<title>ProcesDetailsComponent</title>
<polygon fill="#ffffb3" stroke="black" points="1003.3,-122 844.7,-122 844.7,-86 1003.3,-86 1003.3,-122"/>
<text text-anchor="middle" x="924" y="-99.8" font-family="Times,serif" font-size="14.00">ProcesDetailsComponent</text>
</g>
<!-- ProcesDetailsComponent&#45;&gt;AppModule -->
<g id="edge9" class="edge">
<title>ProcesDetailsComponent&#45;&gt;AppModule</title>
<path fill="none" stroke="black" d="M924,-122.24C924,-137.57 924,-157 924,-157 924,-157 1145.24,-157 1145.24,-157"/>
<polygon fill="black" stroke="black" points="1145.24,-160.5 1155.24,-157 1145.24,-153.5 1145.24,-160.5"/>
</g>
<!-- ProcesFormComponent -->
<g id="node10" class="node">
<title>ProcesFormComponent</title>
<polygon fill="#ffffb3" stroke="black" points="826.48,-122 677.52,-122 677.52,-86 826.48,-86 826.48,-122"/>
<text text-anchor="middle" x="752" y="-99.8" font-family="Times,serif" font-size="14.00">ProcesFormComponent</text>
</g>
<!-- ProcesFormComponent&#45;&gt;AppModule -->
<g id="edge10" class="edge">
<title>ProcesFormComponent&#45;&gt;AppModule</title>
<path fill="none" stroke="black" d="M752,-122.03C752,-139.06 752,-162 752,-162 752,-162 1145.14,-162 1145.14,-162"/>
<polygon fill="black" stroke="black" points="1145.14,-165.5 1155.14,-162 1145.14,-158.5 1145.14,-165.5"/>
</g>
<!-- ProcesListComponent -->
<g id="node11" class="node">
<title>ProcesListComponent</title>
<polygon fill="#ffffb3" stroke="black" points="659.43,-122 518.57,-122 518.57,-86 659.43,-86 659.43,-122"/>
<text text-anchor="middle" x="589" y="-99.8" font-family="Times,serif" font-size="14.00">ProcesListComponent</text>
</g>
<!-- ProcesListComponent&#45;&gt;AppModule -->
<g id="edge11" class="edge">
<title>ProcesListComponent&#45;&gt;AppModule</title>
<path fill="none" stroke="black" d="M589,-122.22C589,-140.83 589,-167 589,-167 589,-167 1145.21,-167 1145.21,-167"/>
<polygon fill="black" stroke="black" points="1145.21,-170.5 1155.21,-167 1145.21,-163.5 1145.21,-170.5"/>
</g>
<!-- UpdateProcesComponent -->
<g id="node12" class="node">
<title>UpdateProcesComponent</title>
<polygon fill="#ffffb3" stroke="black" points="500.58,-122 341.42,-122 341.42,-86 500.58,-86 500.58,-122"/>
<text text-anchor="middle" x="421" y="-99.8" font-family="Times,serif" font-size="14.00">UpdateProcesComponent</text>
</g>
<!-- UpdateProcesComponent&#45;&gt;AppModule -->
<g id="edge12" class="edge">
<title>UpdateProcesComponent&#45;&gt;AppModule</title>
<path fill="none" stroke="black" d="M421,-122.22C421,-142.37 421,-172 421,-172 421,-172 1145.28,-172 1145.28,-172"/>
<polygon fill="black" stroke="black" points="1145.28,-175.5 1155.28,-172 1145.28,-168.5 1145.28,-175.5"/>
</g>
<!-- UserLayoutComponent -->
<g id="node13" class="node">
<title>UserLayoutComponent</title>
<polygon fill="#ffffb3" stroke="black" points="323.92,-122 176.08,-122 176.08,-86 323.92,-86 323.92,-122"/>
<text text-anchor="middle" x="250" y="-99.8" font-family="Times,serif" font-size="14.00">UserLayoutComponent</text>
</g>
<!-- UserLayoutComponent&#45;&gt;AppModule -->
<g id="edge13" class="edge">
<title>UserLayoutComponent&#45;&gt;AppModule</title>
<path fill="none" stroke="black" d="M250,-122.04C250,-143.66 250,-177 250,-177 250,-177 1145.09,-177 1145.09,-177"/>
<polygon fill="black" stroke="black" points="1145.09,-180.5 1155.09,-177 1145.09,-173.5 1145.09,-180.5"/>
</g>
<!-- AppComponent  -->
<g id="node16" class="node">
<title>AppComponent </title>
<polygon fill="#80b1d3" stroke="black" points="1251.44,-252 1142.56,-252 1142.56,-216 1251.44,-216 1251.44,-252"/>
<text text-anchor="middle" x="1197" y="-229.8" font-family="Times,serif" font-size="14.00">AppComponent </text>
</g>
<!-- AppModule&#45;&gt;AppComponent  -->
<g id="edge15" class="edge">
<title>AppModule&#45;&gt;AppComponent </title>
<path fill="none" stroke="black" stroke-dasharray="1,5" d="M1197,-187.11C1197,-187.11 1197,-205.99 1197,-205.99"/>
<polygon fill="black" stroke="black" points="1193.5,-205.99 1197,-215.99 1200.5,-205.99 1193.5,-205.99"/>
</g>
<!-- AppRoutingModule -->
<g id="node15" class="node">
<title>AppRoutingModule</title>
<polygon fill="#8dd3c7" stroke="black" points="152.27,-122 149.27,-126 128.27,-126 125.27,-122 23.73,-122 23.73,-86 152.27,-86 152.27,-122"/>
<text text-anchor="middle" x="88" y="-99.8" font-family="Times,serif" font-size="14.00">AppRoutingModule</text>
</g>
<!-- AppRoutingModule&#45;&gt;AppModule -->
<g id="edge14" class="edge">
<title>AppRoutingModule&#45;&gt;AppModule</title>
<path fill="none" stroke="black" d="M88,-122.09C88,-145.13 88,-182 88,-182 88,-182 1145.22,-182 1145.22,-182"/>
<polygon fill="black" stroke="black" points="1145.22,-185.5 1155.22,-182 1145.22,-178.5 1145.22,-185.5"/>
</g>
</g>
</svg>
