<?xml version="1.0" encoding="UTF-8" standalone="no"?>
<!DOCTYPE svg PUBLIC "-//W3C//DTD SVG 1.1//EN"
 "http://www.w3.org/Graphics/SVG/1.1/DTD/svg11.dtd">
<!-- Generated by graphviz version 2.47.0 (20210316.0004)
 -->
<!-- Title: dependencies Pages: 1 -->
<svg width="1778pt" height="284pt"
 viewBox="0.00 0.00 1778.00 284.00" xmlns="http://www.w3.org/2000/svg" xmlns:xlink="http://www.w3.org/1999/xlink">
<g id="graph0" class="graph" transform="scale(1 1) rotate(0) translate(4 280)">
<title>dependencies</title>
<polygon fill="white" stroke="transparent" points="-4,4 -4,-280 1774,-280 1774,4 -4,4"/>
<text text-anchor="start" x="864.01" y="-42.4" font-family="sans-serif" font-weight="bold" font-size="14.00">Legend</text>
<polygon fill="#ffffb3" stroke="transparent" points="651,-10 651,-30 671,-30 671,-10 651,-10"/>
<text text-anchor="start" x="674.63" y="-15.4" font-family="sans-serif" font-size="14.00"> &#160;Declarations</text>
<polygon fill="#8dd3c7" stroke="transparent" points="764,-10 764,-30 784,-30 784,-10 764,-10"/>
<text text-anchor="start" x="787.73" y="-15.4" font-family="sans-serif" font-size="14.00"> &#160;Module</text>
<polygon fill="#80b1d3" stroke="transparent" points="850,-10 850,-30 870,-30 870,-10 850,-10"/>
<text text-anchor="start" x="873.78" y="-15.4" font-family="sans-serif" font-size="14.00"> &#160;Bootstrap</text>
<polygon fill="#fdb462" stroke="transparent" points="947,-10 947,-30 967,-30 967,-10 947,-10"/>
<text text-anchor="start" x="970.67" y="-15.4" font-family="sans-serif" font-size="14.00"> &#160;Providers</text>
<polygon fill="#fb8072" stroke="transparent" points="1043,-10 1043,-30 1063,-30 1063,-10 1043,-10"/>
<text text-anchor="start" x="1066.73" y="-15.4" font-family="sans-serif" font-size="14.00"> &#160;Exports</text>
<g id="clust1" class="cluster">
<title>cluster_AppModule</title>
<polygon fill="none" stroke="black" stroke-dasharray="1,5" points="8,-70 8,-268 1762,-268 1762,-70 8,-70"/>
</g>
<g id="clust15" class="cluster">
<title>cluster_AppModule_bootstrap</title>
<polygon fill="none" stroke="black" points="867,-208 867,-260 991,-260 991,-208 867,-208"/>
</g>
<g id="clust13" class="cluster">
<title>cluster_AppModule_imports</title>
<polygon fill="none" stroke="black" points="1610,-78 1610,-130 1754,-130 1754,-78 1610,-78"/>
</g>
<g id="clust2" class="cluster">
<title>cluster_AppModule_declarations</title>
<polygon fill="none" stroke="black" points="16,-78 16,-130 1602,-130 1602,-78 16,-78"/>
</g>
<!-- AppComponent -->
<g id="node1" class="node">
<title>AppComponent</title>
<polygon fill="#ffffb3" stroke="black" points="1593.94,-122 1488.06,-122 1488.06,-86 1593.94,-86 1593.94,-122"/>
<text text-anchor="middle" x="1541" y="-99.8" font-family="Times,serif" font-size="14.00">AppComponent</text>
</g>
<!-- AppModule -->
<g id="node11" class="node">
<title>AppModule</title>
<polygon fill="#8dd3c7" stroke="black" points="970.66,-187 967.66,-191 946.66,-191 943.66,-187 887.34,-187 887.34,-151 970.66,-151 970.66,-187"/>
<text text-anchor="middle" x="929" y="-164.8" font-family="Times,serif" font-size="14.00">AppModule</text>
</g>
<!-- AppComponent&#45;&gt;AppModule -->
<g id="edge1" class="edge">
<title>AppComponent&#45;&gt;AppModule</title>
<path fill="none" stroke="black" d="M1541,-122.28C1541,-143.32 1541,-175 1541,-175 1541,-175 981.07,-175 981.07,-175"/>
<polygon fill="black" stroke="black" points="981.07,-171.5 971.07,-175 981.07,-178.5 981.07,-171.5"/>
</g>
<!-- PassosFormComponent -->
<g id="node2" class="node">
<title>PassosFormComponent</title>
<polygon fill="#ffffb3" stroke="black" points="1470.5,-122 1321.5,-122 1321.5,-86 1470.5,-86 1470.5,-122"/>
<text text-anchor="middle" x="1396" y="-99.8" font-family="Times,serif" font-size="14.00">PassosFormComponent</text>
</g>
<!-- PassosFormComponent&#45;&gt;AppModule -->
<g id="edge2" class="edge">
<title>PassosFormComponent&#45;&gt;AppModule</title>
<path fill="none" stroke="black" d="M1396,-122.11C1396,-141.34 1396,-169 1396,-169 1396,-169 980.85,-169 980.85,-169"/>
<polygon fill="black" stroke="black" points="980.85,-165.5 970.85,-169 980.85,-172.5 980.85,-165.5"/>
</g>
<!-- PassosListComponent -->
<g id="node3" class="node">
<title>PassosListComponent</title>
<polygon fill="#ffffb3" stroke="black" points="1303.44,-122 1162.56,-122 1162.56,-86 1303.44,-86 1303.44,-122"/>
<text text-anchor="middle" x="1233" y="-99.8" font-family="Times,serif" font-size="14.00">PassosListComponent</text>
</g>
<!-- PassosListComponent&#45;&gt;AppModule -->
<g id="edge3" class="edge">
<title>PassosListComponent&#45;&gt;AppModule</title>
<path fill="none" stroke="black" d="M1233,-122.02C1233,-139.37 1233,-163 1233,-163 1233,-163 980.95,-163 980.95,-163"/>
<polygon fill="black" stroke="black" points="980.95,-159.5 970.95,-163 980.95,-166.5 980.95,-159.5"/>
</g>
<!-- PlayPasComponent -->
<g id="node4" class="node">
<title>PlayPasComponent</title>
<polygon fill="#ffffb3" stroke="black" points="1144.66,-122 1019.34,-122 1019.34,-86 1144.66,-86 1144.66,-122"/>
<text text-anchor="middle" x="1082" y="-99.8" font-family="Times,serif" font-size="14.00">PlayPasComponent</text>
</g>
<!-- PlayPasComponent&#45;&gt;AppModule -->
<g id="edge4" class="edge">
<title>PlayPasComponent&#45;&gt;AppModule</title>
<path fill="none" stroke="black" d="M1082,-122.24C1082,-137.57 1082,-157 1082,-157 1082,-157 980.81,-157 980.81,-157"/>
<polygon fill="black" stroke="black" points="980.81,-153.5 970.81,-157 980.81,-160.5 980.81,-153.5"/>
</g>
<!-- PlayProcesComponent -->
<g id="node5" class="node">
<title>PlayProcesComponent</title>
<polygon fill="#ffffb3" stroke="black" points="1000.54,-122 857.46,-122 857.46,-86 1000.54,-86 1000.54,-122"/>
<text text-anchor="middle" x="929" y="-99.8" font-family="Times,serif" font-size="14.00">PlayProcesComponent</text>
</g>
<!-- PlayProcesComponent&#45;&gt;AppModule -->
<g id="edge5" class="edge">
<title>PlayProcesComponent&#45;&gt;AppModule</title>
<path fill="none" stroke="black" d="M929,-122.11C929,-122.11 929,-140.99 929,-140.99"/>
<polygon fill="black" stroke="black" points="925.5,-140.99 929,-150.99 932.5,-140.99 925.5,-140.99"/>
</g>
<!-- PrivacitatComponent -->
<g id="node6" class="node">
<title>PrivacitatComponent</title>
<polygon fill="#ffffb3" stroke="black" points="839.48,-122 704.52,-122 704.52,-86 839.48,-86 839.48,-122"/>
<text text-anchor="middle" x="772" y="-99.8" font-family="Times,serif" font-size="14.00">PrivacitatComponent</text>
</g>
<!-- PrivacitatComponent&#45;&gt;AppModule -->
<g id="edge6" class="edge">
<title>PrivacitatComponent&#45;&gt;AppModule</title>
<path fill="none" stroke="black" d="M772,-122.24C772,-137.57 772,-157 772,-157 772,-157 877.34,-157 877.34,-157"/>
<polygon fill="black" stroke="black" points="877.34,-160.5 887.34,-157 877.34,-153.5 877.34,-160.5"/>
</g>
<!-- ProcesDetailsComponent -->
<g id="node7" class="node">
<title>ProcesDetailsComponent</title>
<polygon fill="#ffffb3" stroke="black" points="686.3,-122 527.7,-122 527.7,-86 686.3,-86 686.3,-122"/>
<text text-anchor="middle" x="607" y="-99.8" font-family="Times,serif" font-size="14.00">ProcesDetailsComponent</text>
</g>
<!-- ProcesDetailsComponent&#45;&gt;AppModule -->
<g id="edge7" class="edge">
<title>ProcesDetailsComponent&#45;&gt;AppModule</title>
<path fill="none" stroke="black" d="M607,-122.02C607,-139.37 607,-163 607,-163 607,-163 877.23,-163 877.23,-163"/>
<polygon fill="black" stroke="black" points="877.23,-166.5 887.23,-163 877.23,-159.5 877.23,-166.5"/>
</g>
<!-- ProcesFormComponent -->
<g id="node8" class="node">
<title>ProcesFormComponent</title>
<polygon fill="#ffffb3" stroke="black" points="509.48,-122 360.52,-122 360.52,-86 509.48,-86 509.48,-122"/>
<text text-anchor="middle" x="435" y="-99.8" font-family="Times,serif" font-size="14.00">ProcesFormComponent</text>
</g>
<!-- ProcesFormComponent&#45;&gt;AppModule -->
<g id="edge8" class="edge">
<title>ProcesFormComponent&#45;&gt;AppModule</title>
<path fill="none" stroke="black" d="M435,-122.11C435,-141.34 435,-169 435,-169 435,-169 877.31,-169 877.31,-169"/>
<polygon fill="black" stroke="black" points="877.31,-172.5 887.31,-169 877.31,-165.5 877.31,-172.5"/>
</g>
<!-- ProcesListComponent -->
<g id="node9" class="node">
<title>ProcesListComponent</title>
<polygon fill="#ffffb3" stroke="black" points="342.43,-122 201.57,-122 201.57,-86 342.43,-86 342.43,-122"/>
<text text-anchor="middle" x="272" y="-99.8" font-family="Times,serif" font-size="14.00">ProcesListComponent</text>
</g>
<!-- ProcesListComponent&#45;&gt;AppModule -->
<g id="edge9" class="edge">
<title>ProcesListComponent&#45;&gt;AppModule</title>
<path fill="none" stroke="black" d="M272,-122.28C272,-143.32 272,-175 272,-175 272,-175 877.15,-175 877.15,-175"/>
<polygon fill="black" stroke="black" points="877.15,-178.5 887.15,-175 877.15,-171.5 877.15,-178.5"/>
</g>
<!-- UpdateProcesComponent -->
<g id="node10" class="node">
<title>UpdateProcesComponent</title>
<polygon fill="#ffffb3" stroke="black" points="183.58,-122 24.42,-122 24.42,-86 183.58,-86 183.58,-122"/>
<text text-anchor="middle" x="104" y="-99.8" font-family="Times,serif" font-size="14.00">UpdateProcesComponent</text>
</g>
<!-- UpdateProcesComponent&#45;&gt;AppModule -->
<g id="edge10" class="edge">
<title>UpdateProcesComponent&#45;&gt;AppModule</title>
<path fill="none" stroke="black" d="M104,-122.25C104,-145.02 104,-181 104,-181 104,-181 877.24,-181 877.24,-181"/>
<polygon fill="black" stroke="black" points="877.24,-184.5 887.24,-181 877.24,-177.5 877.24,-184.5"/>
</g>
<!-- AppComponent  -->
<g id="node13" class="node">
<title>AppComponent </title>
<polygon fill="#80b1d3" stroke="black" points="983.44,-252 874.56,-252 874.56,-216 983.44,-216 983.44,-252"/>
<text text-anchor="middle" x="929" y="-229.8" font-family="Times,serif" font-size="14.00">AppComponent </text>
</g>
<!-- AppModule&#45;&gt;AppComponent  -->
<g id="edge12" class="edge">
<title>AppModule&#45;&gt;AppComponent </title>
<path fill="none" stroke="black" stroke-dasharray="1,5" d="M929,-187.11C929,-187.11 929,-205.99 929,-205.99"/>
<polygon fill="black" stroke="black" points="925.5,-205.99 929,-215.99 932.5,-205.99 925.5,-205.99"/>
</g>
<!-- AppRoutingModule -->
<g id="node12" class="node">
<title>AppRoutingModule</title>
<polygon fill="#8dd3c7" stroke="black" points="1746.27,-122 1743.27,-126 1722.27,-126 1719.27,-122 1617.73,-122 1617.73,-86 1746.27,-86 1746.27,-122"/>
<text text-anchor="middle" x="1682" y="-99.8" font-family="Times,serif" font-size="14.00">AppRoutingModule</text>
</g>
<!-- AppRoutingModule&#45;&gt;AppModule -->
<g id="edge11" class="edge">
<title>AppRoutingModule&#45;&gt;AppModule</title>
<path fill="none" stroke="black" d="M1682,-122.25C1682,-145.02 1682,-181 1682,-181 1682,-181 980.83,-181 980.83,-181"/>
<polygon fill="black" stroke="black" points="980.83,-177.5 970.83,-181 980.83,-184.5 980.83,-177.5"/>
</g>
</g>
</svg>
